<?xml version="1.0" encoding="UTF-8"?>
<!-- Created with Inkscape (http://www.inkscape.org/) -->
<svg id="svg7384" width="16" height="16" version="1.1" xmlns="http://www.w3.org/2000/svg" xmlns:cc="http://creativecommons.org/ns#" xmlns:dc="http://purl.org/dc/elements/1.1/" xmlns:rdf="http://www.w3.org/1999/02/22-rdf-syntax-ns#">
 <metadata id="metadata90">
  <rdf:RDF>
   <cc:Work rdf:about="">
    <dc:format>image/svg+xml</dc:format>
    <dc:type rdf:resource="http://purl.org/dc/dcmitype/StillImage"/>
    <dc:title>Gnome Symbolic Icon Theme</dc:title>
   </cc:Work>
  </rdf:RDF>
 </metadata>
 <title id="title9167">Gnome Symbolic Icon Theme</title>
 <g id="layer9" transform="translate(-304.49 -175)">
  <path id="path27918" d="m311 176c-3.0289 0-5.5 2.4746-5.5 5.5 0 3.0254 2.4711 5.5 5.5 5.5 3.0288 0 5.5-2.4746 5.5-5.5 0-0.54679-0.0993-1.0628-0.25-1.5625l-4.1875 4.1875-1.0625 1.0625-1.0625-1.0625-3-3 2.125-2.125 1.9375 1.9375 3.5938-3.5938c-0.96727-0.83606-2.2233-1.3438-3.5938-1.3438z" style="block-progression:tb;color:#000000;enable-background:new;fill:#bebebe;text-indent:0;text-transform:none"/>
  <path id="path3613-6-6-9" d="m319 189-1e-5 -1c-3e-5 -0.26531-0.0931-0.53058-0.28124-0.71876l-4-4-0.7187 2.1563 3.2812 3.2812c0.18817 0.18815 0.45345 0.28125 0.71875 0.28125h1z" style="block-progression:tb;color:#000000;fill:#bebebe;text-indent:0;text-transform:none"/>
 </g>
</svg>
