<?xml version="1.0" encoding="UTF-8"?>
<svg id="svg11300" width="128" height="128" style="enable-background:new" version="1.0" viewBox="0 0 128 128" xml:space="preserve" xmlns="http://www.w3.org/2000/svg" xmlns:cc="http://creativecommons.org/ns#" xmlns:dc="http://purl.org/dc/elements/1.1/" xmlns:rdf="http://www.w3.org/1999/02/22-rdf-syntax-ns#"><title id="title4162">Adwaita Icon Template</title><metadata id="metadata4"><rdf:RDF><cc:Work rdf:about=""><dc:format>image/svg+xml</dc:format><dc:type rdf:resource="http://purl.org/dc/dcmitype/StillImage"/><dc:creator><cc:Agent><dc:title>GNOME Design Team</dc:title></cc:Agent></dc:creator><dc:source/><cc:license rdf:resource="http://creativecommons.org/licenses/by-sa/4.0/"/><dc:title>Adwaita Icon Template</dc:title><dc:subject><rdf:Bag/></dc:subject><dc:date/><dc:rights><cc:Agent><dc:title/></cc:Agent></dc:rights><dc:publisher><cc:Agent><dc:title/></cc:Agent></dc:publisher><dc:identifier/><dc:relation/><dc:language/><dc:coverage/><dc:description/><dc:contributor><cc:Agent><dc:title/></cc:Agent></dc:contributor></cc:Work><cc:License rdf:about="http://creativecommons.org/licenses/by-sa/4.0/"><cc:permits rdf:resource="http://creativecommons.org/ns#Reproduction"/><cc:permits rdf:resource="http://creativecommons.org/ns#Distribution"/><cc:requires rdf:resource="http://creativecommons.org/ns#Notice"/><cc:requires rdf:resource="http://creativecommons.org/ns#Attribution"/><cc:permits rdf:resource="http://creativecommons.org/ns#DerivativeWorks"/><cc:requires rdf:resource="http://creativecommons.org/ns#ShareAlike"/></cc:License></rdf:RDF></metadata><rect id="rect929-36-9" x="12" y="12" width="104" height="104" rx="16" style="enable-background:new;fill:#f6f5f4;paint-order:normal"/><g id="g1735" transform="matrix(1.7296 0 0 1.7296 -122.97 -184.42)" style="stroke-width:2.1852"><path id="path28" d="m108.1 121.08c-12.448 0-22.539 10.087-22.549 22.534v-1e-3 17.451c7e-3 2.825 2.2983 5.1142 5.1262 5.1142 7e-3 0 0.018-1e-3 0.0247-1e-3v1e-3h17.406c12.449-7e-3 22.541-10.098 22.541-22.549 0-12.453-10.095-22.549-22.549-22.549z" style="fill:#51a2da"/><path id="path30" d="m112.67 130.36c-3.5168 0-6.623 2.6472-7.0513 6.1214-0.0303 0.29068-0.043 0.50165-0.0441 0.76482v14.199c0 2.7231-2.0341 4.5766-4.5822 4.5766-2.5506 0-4.608-2.0369-4.608-4.5822 0.0427-2.7919 2.2722-4.56 4.8796-4.6369l2.6638-0.0236v-3.7536l-2.642 0.018c-4.7431-0.0445-8.5189 3.671-8.6568 8.3961 0 4.5932 3.78 8.3414 8.3619 8.3414 4.3229 0 7.9213-3.3803 8.3139-7.607l0.0233-5.3852 3.2812-0.0208c2.5411 0.018 2.515-3.8118-0.0261-3.7592l-3.2551 0.0219v-5.7725c6e-3 -1.6676 1.5875-3.139 3.3419-3.139 1.7554 0 3.6075 0.8763 3.6075 3.1432 0 0.32385-8e-3 0.51258-0.0247 0.63112-0.19685 1.0513 0.52246 2.0546 1.5818 2.2063 1.0583 0.15028 2.0299-0.61207 2.1347-1.6757 0.0593-0.42193 0.0635-0.79093 0.0635-1.1617 0-3.9991-3.5761-6.9028-7.3628-6.9028z" style="fill:#fff"/></g></svg>
